<svg xmlns="http://www.w3.org/2000/svg" xmlns:xlink="http://www.w3.org/1999/xlink" id="Layer_1" width="530.001" height="560" x="0" y="0" enable-background="new 0 0 530.001 560" version="1.1" viewBox="0 0 530.001 560" xml:space="preserve"><g><g><rect width="160" height="20" x="45" y="414.997" fill="red" opacity=".5"/><rect width="160" height="20" x="45" y="374.998" fill="red" opacity=".5"/><rect width="160" height="20" x="45" y="454.999" fill="red" opacity=".5"/><rect width="120" height="20" x="65" y="474.999" fill="red" opacity=".5"/><rect width="160" height="20.002" x="45" y="434.997" fill="red" opacity=".5"/><rect width="160" height="20" x="45" y="354.998" fill="red" opacity=".5"/><rect width="120" height="20" x="65" y="334.998" fill="red" opacity=".5"/><rect width="160" height="19.999" x="45" y="394.998" fill="red" opacity=".5"/></g><g><g><g><line x1="5" x2="7.5" y1="334.998" y2="334.998" fill="none" stroke="#666" stroke-miterlimit="10"/><line x1="12.5" x2="240" y1="334.998" y2="334.998" fill="none" stroke="#666" stroke-dasharray="5 5" stroke-miterlimit="10"/><line x1="242.5" x2="245" y1="334.998" y2="334.998" fill="none" stroke="#666" stroke-miterlimit="10"/></g></g><g><g><line x1="5" x2="7.5" y1="374.998" y2="374.998" fill="none" stroke="#666" stroke-miterlimit="10"/><line x1="12.5" x2="240" y1="374.998" y2="374.998" fill="none" stroke="#666" stroke-dasharray="5 5" stroke-miterlimit="10"/><line x1="242.5" x2="245" y1="374.998" y2="374.998" fill="none" stroke="#666" stroke-miterlimit="10"/></g></g><g><g><line x1="5" x2="7.5" y1="414.997" y2="414.997" fill="none" stroke="#666" stroke-miterlimit="10"/><line x1="12.5" x2="240" y1="414.997" y2="414.997" fill="none" stroke="#666" stroke-dasharray="5 5" stroke-miterlimit="10"/><line x1="242.5" x2="245" y1="414.997" y2="414.997" fill="none" stroke="#666" stroke-miterlimit="10"/></g></g><g><g><line x1="5" x2="7.5" y1="454.999" y2="454.999" fill="none" stroke="#666" stroke-miterlimit="10"/><line x1="12.5" x2="240" y1="454.999" y2="454.999" fill="none" stroke="#666" stroke-dasharray="5 5" stroke-miterlimit="10"/><line x1="242.5" x2="245" y1="454.999" y2="454.999" fill="none" stroke="#666" stroke-miterlimit="10"/></g></g><g><g><line x1="5" x2="7.5" y1="494.999" y2="494.999" fill="none" stroke="#666" stroke-miterlimit="10"/><line x1="12.5" x2="240" y1="494.999" y2="494.999" fill="none" stroke="#666" stroke-dasharray="5 5" stroke-miterlimit="10"/><line x1="242.5" x2="245" y1="494.999" y2="494.999" fill="none" stroke="#666" stroke-miterlimit="10"/></g></g><g><g><line x1="5" x2="7.5" y1="534.999" y2="534.999" fill="none" stroke="#666" stroke-miterlimit="10"/><line x1="12.5" x2="240" y1="534.999" y2="534.999" fill="none" stroke="#666" stroke-dasharray="5 5" stroke-miterlimit="10"/><line x1="242.5" x2="245" y1="534.999" y2="534.999" fill="none" stroke="#666" stroke-miterlimit="10"/></g></g><g><g><line x1="25" x2="25" y1="314.998" y2="317.498" fill="none" stroke="#666" stroke-miterlimit="10"/><line x1="25" x2="25" y1="322.498" y2="549.999" fill="none" stroke="#666" stroke-dasharray="5 5" stroke-miterlimit="10"/><line x1="25" x2="25" y1="552.499" y2="554.999" fill="none" stroke="#666" stroke-miterlimit="10"/></g></g><g><g><line x1="65" x2="65" y1="314.998" y2="317.498" fill="none" stroke="#666" stroke-miterlimit="10"/><line x1="65" x2="65" y1="322.498" y2="549.999" fill="none" stroke="#666" stroke-dasharray="5 5" stroke-miterlimit="10"/><line x1="65" x2="65" y1="552.499" y2="554.999" fill="none" stroke="#666" stroke-miterlimit="10"/></g></g><g><g><line x1="105" x2="105" y1="314.998" y2="317.498" fill="none" stroke="#666" stroke-miterlimit="10"/><line x1="105" x2="105" y1="322.498" y2="549.999" fill="none" stroke="#666" stroke-dasharray="5 5" stroke-miterlimit="10"/><line x1="105" x2="105" y1="552.499" y2="554.999" fill="none" stroke="#666" stroke-miterlimit="10"/></g></g><g><g><line x1="145" x2="145" y1="314.998" y2="317.498" fill="none" stroke="#666" stroke-miterlimit="10"/><line x1="145" x2="145" y1="322.498" y2="549.999" fill="none" stroke="#666" stroke-dasharray="5 5" stroke-miterlimit="10"/><line x1="145" x2="145" y1="552.499" y2="554.999" fill="none" stroke="#666" stroke-miterlimit="10"/></g></g><g><g><line x1="185" x2="185" y1="314.998" y2="317.498" fill="none" stroke="#666" stroke-miterlimit="10"/><line x1="185" x2="185" y1="322.498" y2="549.999" fill="none" stroke="#666" stroke-dasharray="5 5" stroke-miterlimit="10"/><line x1="185" x2="185" y1="552.499" y2="554.999" fill="none" stroke="#666" stroke-miterlimit="10"/></g></g><g><g><line x1="225" x2="225" y1="314.998" y2="317.498" fill="none" stroke="#666" stroke-miterlimit="10"/><line x1="225" x2="225" y1="322.498" y2="549.999" fill="none" stroke="#666" stroke-dasharray="5 5" stroke-miterlimit="10"/><line x1="225" x2="225" y1="552.499" y2="554.999" fill="none" stroke="#666" stroke-miterlimit="10"/></g></g></g><g><line x1="5" x2="245" y1="354.998" y2="354.998" fill="none" stroke="#000" stroke-linecap="square" stroke-miterlimit="10" stroke-width="2"/><line x1="5" x2="245" y1="314.998" y2="314.998" fill="none" stroke="#000" stroke-linecap="square" stroke-miterlimit="10" stroke-width="2"/><line x1="5" x2="245" y1="394.998" y2="394.998" fill="none" stroke="#000" stroke-linecap="square" stroke-miterlimit="10" stroke-width="2"/><line x1="5" x2="245" y1="434.997" y2="434.997" fill="none" stroke="#000" stroke-linecap="square" stroke-miterlimit="10" stroke-width="2"/><line x1="5" x2="245" y1="474.999" y2="474.999" fill="none" stroke="#000" stroke-linecap="square" stroke-miterlimit="10" stroke-width="2"/><line x1="5" x2="245" y1="514.999" y2="514.999" fill="none" stroke="#000" stroke-linecap="square" stroke-miterlimit="10" stroke-width="2"/><line x1="5" x2="245" y1="554.999" y2="554.999" fill="none" stroke="#000" stroke-linecap="square" stroke-miterlimit="10" stroke-width="2"/><line x1="125" x2="125" y1="314.998" y2="554.999" fill="none" stroke="#000" stroke-linecap="square" stroke-miterlimit="10" stroke-width="2"/><line x1="85" x2="85" y1="314.998" y2="554.999" fill="none" stroke="#000" stroke-linecap="square" stroke-miterlimit="10" stroke-width="2"/><line x1="45" x2="45" y1="314.998" y2="554.999" fill="none" stroke="#000" stroke-linecap="square" stroke-miterlimit="10" stroke-width="2"/><line x1="5" x2="5" y1="314.998" y2="554.999" fill="none" stroke="#000" stroke-linecap="square" stroke-miterlimit="10" stroke-width="2"/><line x1="165" x2="165" y1="314.998" y2="554.999" fill="none" stroke="#000" stroke-linecap="square" stroke-miterlimit="10" stroke-width="2"/><line x1="205" x2="205" y1="314.998" y2="554.999" fill="none" stroke="#000" stroke-linecap="square" stroke-miterlimit="10" stroke-width="2"/><line x1="245" x2="245" y1="314.998" y2="554.999" fill="none" stroke="#000" stroke-linecap="square" stroke-miterlimit="10" stroke-width="2"/></g><circle cx="125.001" cy="416.815" r="87.576" fill="none" stroke="#EC1E24" stroke-miterlimit="10" stroke-width="3"/></g><g><g><defs><rect id="SVGID_1_" width="250" height="250" x="280.001" y="29.998"/></defs><clipPath id="SVGID_2_"><use overflow="visible" xlink:href="#SVGID_1_"/></clipPath><g clip-path="url(#SVGID_2_)"><defs><rect id="SVGID_3_" width="250" height="250" x="280.001" y="29.998"/></defs><clipPath id="SVGID_4_"><use overflow="visible" xlink:href="#SVGID_3_"/></clipPath><g clip-path="url(#SVGID_4_)"><defs><rect id="SVGID_5_" width="250" height="250" x="280.001" y="29.998"/></defs><clipPath id="SVGID_6_"><use overflow="visible" xlink:href="#SVGID_5_"/></clipPath><g clip-path="url(#SVGID_6_)" opacity=".5"><g><defs><rect id="SVGID_7_" width="40" height="40" x="365.001" y="34.998"/></defs><clipPath id="SVGID_8_"><use overflow="visible" xlink:href="#SVGID_7_"/></clipPath><rect width="40" height="40" x="365.001" y="34.998" fill="red" clip-path="url(#SVGID_8_)"/></g></g><g clip-path="url(#SVGID_6_)" opacity=".5"><g><defs><rect id="SVGID_9_" width="40" height="40" x="365.001" y="74.998"/></defs><clipPath id="SVGID_10_"><use overflow="visible" xlink:href="#SVGID_9_"/></clipPath><rect width="40" height="40" x="365.001" y="74.998" fill="red" clip-path="url(#SVGID_10_)"/></g></g><g clip-path="url(#SVGID_6_)" opacity=".5"><g><defs><rect id="SVGID_11_" width="40" height="40" x="365.001" y="114.998"/></defs><clipPath id="SVGID_12_"><use overflow="visible" xlink:href="#SVGID_11_"/></clipPath><rect width="40" height="40" x="365.001" y="114.998" fill="red" clip-path="url(#SVGID_12_)"/></g></g><g clip-path="url(#SVGID_6_)" opacity=".5"><g><defs><rect id="SVGID_13_" width="40" height="40" x="365.001" y="154.998"/></defs><clipPath id="SVGID_14_"><use overflow="visible" xlink:href="#SVGID_13_"/></clipPath><rect width="40" height="40" x="365.001" y="154.998" fill="red" clip-path="url(#SVGID_14_)"/></g></g><g clip-path="url(#SVGID_6_)" opacity=".5"><g><defs><rect id="SVGID_15_" width="40" height="40" x="405.001" y="154.998"/></defs><clipPath id="SVGID_16_"><use overflow="visible" xlink:href="#SVGID_15_"/></clipPath><rect width="40" height="40" x="405.001" y="154.998" fill="red" clip-path="url(#SVGID_16_)"/></g></g><g clip-path="url(#SVGID_6_)" opacity=".5"><g><defs><rect id="SVGID_17_" width="40" height="40" x="405.001" y="114.998"/></defs><clipPath id="SVGID_18_"><use overflow="visible" xlink:href="#SVGID_17_"/></clipPath><rect width="40" height="40" x="405.001" y="114.998" fill="red" clip-path="url(#SVGID_18_)"/></g></g><g clip-path="url(#SVGID_6_)" opacity=".5"><g><defs><rect id="SVGID_19_" width="40" height="40" x="405.001" y="74.998"/></defs><clipPath id="SVGID_20_"><use overflow="visible" xlink:href="#SVGID_19_"/></clipPath><rect width="40" height="40" x="405.001" y="74.998" fill="red" clip-path="url(#SVGID_20_)"/></g></g><g clip-path="url(#SVGID_6_)" opacity=".5"><g><defs><rect id="SVGID_21_" width="40" height="40" x="405.001" y="34.998"/></defs><clipPath id="SVGID_22_"><use overflow="visible" xlink:href="#SVGID_21_"/></clipPath><rect width="40" height="40" x="405.001" y="34.998" fill="red" clip-path="url(#SVGID_22_)"/></g></g><g clip-path="url(#SVGID_6_)" opacity=".5"><g><defs><rect id="SVGID_23_" width="40" height="40" x="445.001" y="74.998"/></defs><clipPath id="SVGID_24_"><use overflow="visible" xlink:href="#SVGID_23_"/></clipPath><rect width="40" height="40" x="445.001" y="74.998" fill="red" clip-path="url(#SVGID_24_)"/></g></g><g clip-path="url(#SVGID_6_)" opacity=".5"><g><defs><rect id="SVGID_25_" width="40" height="40" x="445.001" y="114.998"/></defs><clipPath id="SVGID_26_"><use overflow="visible" xlink:href="#SVGID_25_"/></clipPath><rect width="40" height="40" x="445.001" y="114.998" fill="red" clip-path="url(#SVGID_26_)"/></g></g><g clip-path="url(#SVGID_6_)" opacity=".5"><g><defs><rect id="SVGID_27_" width="40" height="40" x="445.001" y="154.998"/></defs><clipPath id="SVGID_28_"><use overflow="visible" xlink:href="#SVGID_27_"/></clipPath><rect width="40" height="40" x="445.001" y="154.998" fill="red" clip-path="url(#SVGID_28_)"/></g></g><g clip-path="url(#SVGID_6_)" opacity=".5"><g><defs><rect id="SVGID_29_" width="40" height="40" x="405.001" y="194.998"/></defs><clipPath id="SVGID_30_"><use overflow="visible" xlink:href="#SVGID_29_"/></clipPath><rect width="40" height="40" x="405.001" y="194.998" fill="red" clip-path="url(#SVGID_30_)"/></g></g><g clip-path="url(#SVGID_6_)" opacity=".5"><g><defs><rect id="SVGID_31_" width="40" height="40" x="365.001" y="194.998"/></defs><clipPath id="SVGID_32_"><use overflow="visible" xlink:href="#SVGID_31_"/></clipPath><rect width="40" height="40" x="365.001" y="194.998" fill="red" clip-path="url(#SVGID_32_)"/></g></g><g clip-path="url(#SVGID_6_)" opacity=".5"><g><defs><rect id="SVGID_33_" width="40" height="40" x="325.001" y="154.998"/></defs><clipPath id="SVGID_34_"><use overflow="visible" xlink:href="#SVGID_33_"/></clipPath><rect width="40" height="40" x="325.001" y="154.998" fill="red" clip-path="url(#SVGID_34_)"/></g></g><g clip-path="url(#SVGID_6_)" opacity=".5"><g><defs><rect id="SVGID_35_" width="40" height="40" x="325.001" y="114.998"/></defs><clipPath id="SVGID_36_"><use overflow="visible" xlink:href="#SVGID_35_"/></clipPath><rect width="40" height="40" x="325.001" y="114.998" fill="red" clip-path="url(#SVGID_36_)"/></g></g><g clip-path="url(#SVGID_6_)" opacity=".5"><g><defs><rect id="SVGID_37_" width="40" height="40" x="325.001" y="74.998"/></defs><clipPath id="SVGID_38_"><use overflow="visible" xlink:href="#SVGID_37_"/></clipPath><rect width="40" height="40" x="325.001" y="74.998" fill="red" clip-path="url(#SVGID_38_)"/></g></g></g><line x1="285.001" x2="525.001" y1="74.998" y2="74.998" fill="none" stroke="#000" stroke-linecap="square" stroke-miterlimit="10" stroke-width="2" clip-path="url(#SVGID_4_)"/><line x1="285.001" x2="525.001" y1="34.998" y2="34.998" fill="none" stroke="#000" stroke-linecap="square" stroke-miterlimit="10" stroke-width="2" clip-path="url(#SVGID_4_)"/><line x1="285.001" x2="525.001" y1="114.998" y2="114.998" fill="none" stroke="#000" stroke-linecap="square" stroke-miterlimit="10" stroke-width="2" clip-path="url(#SVGID_4_)"/><line x1="285.001" x2="525.001" y1="154.998" y2="154.998" fill="none" stroke="#000" stroke-linecap="square" stroke-miterlimit="10" stroke-width="2" clip-path="url(#SVGID_4_)"/><line x1="285.001" x2="525.001" y1="194.998" y2="194.998" fill="none" stroke="#000" stroke-linecap="square" stroke-miterlimit="10" stroke-width="2" clip-path="url(#SVGID_4_)"/><line x1="285.001" x2="525.001" y1="234.998" y2="234.998" fill="none" stroke="#000" stroke-linecap="square" stroke-miterlimit="10" stroke-width="2" clip-path="url(#SVGID_4_)"/><line x1="285.001" x2="525.001" y1="274.998" y2="274.998" fill="none" stroke="#000" stroke-linecap="square" stroke-miterlimit="10" stroke-width="2" clip-path="url(#SVGID_4_)"/><line x1="405.001" x2="405.001" y1="34.998" y2="274.998" fill="none" stroke="#000" stroke-linecap="square" stroke-miterlimit="10" stroke-width="2" clip-path="url(#SVGID_4_)"/><line x1="365.001" x2="365.001" y1="34.998" y2="274.998" fill="none" stroke="#000" stroke-linecap="square" stroke-miterlimit="10" stroke-width="2" clip-path="url(#SVGID_4_)"/><line x1="325.001" x2="325.001" y1="34.998" y2="274.998" fill="none" stroke="#000" stroke-linecap="square" stroke-miterlimit="10" stroke-width="2" clip-path="url(#SVGID_4_)"/><line x1="285.001" x2="285.001" y1="34.998" y2="274.998" fill="none" stroke="#000" stroke-linecap="square" stroke-miterlimit="10" stroke-width="2" clip-path="url(#SVGID_4_)"/><line x1="445.001" x2="445.001" y1="34.998" y2="274.998" fill="none" stroke="#000" stroke-linecap="square" stroke-miterlimit="10" stroke-width="2" clip-path="url(#SVGID_4_)"/><line x1="485.001" x2="485.001" y1="34.998" y2="274.998" fill="none" stroke="#000" stroke-linecap="square" stroke-miterlimit="10" stroke-width="2" clip-path="url(#SVGID_4_)"/><line x1="525.001" x2="525.001" y1="34.998" y2="274.998" fill="none" stroke="#000" stroke-linecap="square" stroke-miterlimit="10" stroke-width="2" clip-path="url(#SVGID_4_)"/><g clip-path="url(#SVGID_4_)"><defs><rect id="SVGID_39_" width="250" height="250" x="280.001" y="29.998"/></defs><clipPath id="SVGID_40_"><use overflow="visible" xlink:href="#SVGID_39_"/></clipPath><circle cx="405.001" cy="136.816" r="87.576" fill="none" stroke="#EC1E24" stroke-miterlimit="10" stroke-width="3" clip-path="url(#SVGID_40_)"/></g></g></g></g><g><g><defs><rect id="SVGID_41_" width="250" height="250" y="29.998"/></defs><clipPath id="SVGID_42_"><use overflow="visible" xlink:href="#SVGID_41_"/></clipPath><g clip-path="url(#SVGID_42_)"><defs><rect id="SVGID_43_" width="250" height="250" y="29.998"/></defs><clipPath id="SVGID_44_"><use overflow="visible" xlink:href="#SVGID_43_"/></clipPath><line x1="5" x2="245" y1="74.998" y2="74.998" fill="none" stroke="#000" stroke-linecap="square" stroke-miterlimit="10" stroke-width="2" clip-path="url(#SVGID_44_)"/><line x1="5" x2="245" y1="34.998" y2="34.998" fill="none" stroke="#000" stroke-linecap="square" stroke-miterlimit="10" stroke-width="2" clip-path="url(#SVGID_44_)"/><line x1="5" x2="245" y1="114.998" y2="114.998" fill="none" stroke="#000" stroke-linecap="square" stroke-miterlimit="10" stroke-width="2" clip-path="url(#SVGID_44_)"/><line x1="5" x2="245" y1="154.998" y2="154.998" fill="none" stroke="#000" stroke-linecap="square" stroke-miterlimit="10" stroke-width="2" clip-path="url(#SVGID_44_)"/><line x1="5" x2="245" y1="194.998" y2="194.998" fill="none" stroke="#000" stroke-linecap="square" stroke-miterlimit="10" stroke-width="2" clip-path="url(#SVGID_44_)"/><line x1="5" x2="245" y1="234.998" y2="234.998" fill="none" stroke="#000" stroke-linecap="square" stroke-miterlimit="10" stroke-width="2" clip-path="url(#SVGID_44_)"/><line x1="5" x2="245" y1="274.998" y2="274.998" fill="none" stroke="#000" stroke-linecap="square" stroke-miterlimit="10" stroke-width="2" clip-path="url(#SVGID_44_)"/><line x1="125" x2="125" y1="34.998" y2="274.998" fill="none" stroke="#000" stroke-linecap="square" stroke-miterlimit="10" stroke-width="2" clip-path="url(#SVGID_44_)"/><line x1="85" x2="85" y1="34.998" y2="274.998" fill="none" stroke="#000" stroke-linecap="square" stroke-miterlimit="10" stroke-width="2" clip-path="url(#SVGID_44_)"/><line x1="45" x2="45" y1="34.998" y2="274.998" fill="none" stroke="#000" stroke-linecap="square" stroke-miterlimit="10" stroke-width="2" clip-path="url(#SVGID_44_)"/><line x1="5" x2="5" y1="34.998" y2="274.998" fill="none" stroke="#000" stroke-linecap="square" stroke-miterlimit="10" stroke-width="2" clip-path="url(#SVGID_44_)"/><line x1="165" x2="165" y1="34.998" y2="274.998" fill="none" stroke="#000" stroke-linecap="square" stroke-miterlimit="10" stroke-width="2" clip-path="url(#SVGID_44_)"/><line x1="205" x2="205" y1="34.998" y2="274.998" fill="none" stroke="#000" stroke-linecap="square" stroke-miterlimit="10" stroke-width="2" clip-path="url(#SVGID_44_)"/><line x1="245" x2="245" y1="34.998" y2="274.998" fill="none" stroke="#000" stroke-linecap="square" stroke-miterlimit="10" stroke-width="2" clip-path="url(#SVGID_44_)"/><g clip-path="url(#SVGID_44_)"><defs><rect id="SVGID_45_" width="250" height="250" y="29.998"/></defs><clipPath id="SVGID_46_"><use overflow="visible" xlink:href="#SVGID_45_"/></clipPath><g clip-path="url(#SVGID_46_)" opacity=".5"><g><defs><rect id="SVGID_47_" width="178.151" height="178.151" x="35.925" y="47.74"/></defs><clipPath id="SVGID_48_"><use overflow="visible" xlink:href="#SVGID_47_"/></clipPath><path fill="red" d="M212.576,136.816c0,48.367-39.209,87.576-87.576,87.576 c-48.365,0-87.574-39.209-87.574-87.576c0-48.368,39.209-87.577,87.574-87.577C173.367,49.24,212.576,88.449,212.576,136.816" clip-path="url(#SVGID_48_)"/><circle cx="125.001" cy="136.816" r="87.575" fill="none" stroke="#EC1E24" stroke-miterlimit="10" stroke-width="3" clip-path="url(#SVGID_48_)"/></g></g><circle cx="125.001" cy="136.816" r="87.575" fill="none" stroke="#EC1E24" stroke-miterlimit="10" stroke-width="3" clip-path="url(#SVGID_46_)"/></g></g></g></g><text font-family="'MyriadPro-Regular'" font-size="24" transform="matrix(1 0 0 1 41.9131 22.042)">method = ’exact’</text><text font-family="'MyriadPro-Regular'" font-size="24" transform="matrix(1 0 0 1 316.8613 22.042)">method = ’center’</text><text transform="matrix(1 0 0 1 257.9517 374.998)"><tspan x="0" y="0" font-family="'MyriadPro-Regular'" font-size="24">method = ’subpixel’</tspan><tspan x="0" y="28.8" font-family="'MyriadPro-Regular'" font-size="24">subpixels = 2</tspan></text></svg>